<mxfile host="Electron" agent="Mozilla/5.0 (Windows NT 10.0; Win64; x64) AppleWebKit/537.36 (KHTML, like Gecko) draw.io/24.7.17 Chrome/128.0.6613.36 Electron/32.0.1 Safari/537.36" version="24.7.17">
  <diagram name="Página-1" id="1Qqm1MSJnMG8FQJ9DJ5k">
    <mxGraphModel dx="792" dy="477" grid="0" gridSize="10" guides="1" tooltips="1" connect="1" arrows="1" fold="1" page="1" pageScale="1" pageWidth="827" pageHeight="1169" math="0" shadow="0">
      <root>
        <mxCell id="0" />
        <mxCell id="1" parent="0" />
        <mxCell id="IKJK6t3MZGkqA9nfA6T0-1" value="Problema" style="rounded=0;whiteSpace=wrap;html=1;" vertex="1" parent="1">
          <mxGeometry x="206" y="157" width="120" height="60" as="geometry" />
        </mxCell>
        <mxCell id="IKJK6t3MZGkqA9nfA6T0-17" style="edgeStyle=orthogonalEdgeStyle;rounded=0;orthogonalLoop=1;jettySize=auto;html=1;exitX=0.5;exitY=1;exitDx=0;exitDy=0;entryX=0.5;entryY=0;entryDx=0;entryDy=0;" edge="1" parent="1" source="IKJK6t3MZGkqA9nfA6T0-2" target="IKJK6t3MZGkqA9nfA6T0-3">
          <mxGeometry relative="1" as="geometry" />
        </mxCell>
        <mxCell id="IKJK6t3MZGkqA9nfA6T0-2" value="Modelo" style="ellipse;whiteSpace=wrap;html=1;" vertex="1" parent="1">
          <mxGeometry x="209" y="267" width="120" height="80" as="geometry" />
        </mxCell>
        <mxCell id="IKJK6t3MZGkqA9nfA6T0-14" style="edgeStyle=orthogonalEdgeStyle;rounded=0;orthogonalLoop=1;jettySize=auto;html=1;exitX=1;exitY=0.5;exitDx=0;exitDy=0;curved=1;" edge="1" parent="1" source="IKJK6t3MZGkqA9nfA6T0-3" target="IKJK6t3MZGkqA9nfA6T0-11">
          <mxGeometry relative="1" as="geometry" />
        </mxCell>
        <mxCell id="IKJK6t3MZGkqA9nfA6T0-15" style="edgeStyle=orthogonalEdgeStyle;rounded=0;orthogonalLoop=1;jettySize=auto;html=1;exitX=1;exitY=0.5;exitDx=0;exitDy=0;curved=1;" edge="1" parent="1" source="IKJK6t3MZGkqA9nfA6T0-3" target="IKJK6t3MZGkqA9nfA6T0-12">
          <mxGeometry relative="1" as="geometry" />
        </mxCell>
        <mxCell id="IKJK6t3MZGkqA9nfA6T0-19" style="edgeStyle=orthogonalEdgeStyle;rounded=0;orthogonalLoop=1;jettySize=auto;html=1;exitX=0.5;exitY=1;exitDx=0;exitDy=0;entryX=0.5;entryY=0;entryDx=0;entryDy=0;" edge="1" parent="1" source="IKJK6t3MZGkqA9nfA6T0-3" target="IKJK6t3MZGkqA9nfA6T0-4">
          <mxGeometry relative="1" as="geometry" />
        </mxCell>
        <mxCell id="IKJK6t3MZGkqA9nfA6T0-3" value="Estimación puntual" style="rounded=0;whiteSpace=wrap;html=1;" vertex="1" parent="1">
          <mxGeometry x="209" y="405" width="120" height="60" as="geometry" />
        </mxCell>
        <mxCell id="IKJK6t3MZGkqA9nfA6T0-16" style="edgeStyle=orthogonalEdgeStyle;rounded=0;orthogonalLoop=1;jettySize=auto;html=1;exitX=0.5;exitY=1;exitDx=0;exitDy=0;entryX=0;entryY=0.5;entryDx=0;entryDy=0;curved=1;" edge="1" parent="1" source="IKJK6t3MZGkqA9nfA6T0-4" target="IKJK6t3MZGkqA9nfA6T0-6">
          <mxGeometry relative="1" as="geometry" />
        </mxCell>
        <mxCell id="IKJK6t3MZGkqA9nfA6T0-20" style="edgeStyle=orthogonalEdgeStyle;rounded=0;orthogonalLoop=1;jettySize=auto;html=1;exitX=1;exitY=0.5;exitDx=0;exitDy=0;" edge="1" parent="1" source="IKJK6t3MZGkqA9nfA6T0-4" target="IKJK6t3MZGkqA9nfA6T0-5">
          <mxGeometry relative="1" as="geometry" />
        </mxCell>
        <mxCell id="IKJK6t3MZGkqA9nfA6T0-4" value="I.C.&lt;div&gt;Intervalo de confianza&lt;/div&gt;" style="rounded=0;whiteSpace=wrap;html=1;" vertex="1" parent="1">
          <mxGeometry x="184" y="525" width="171" height="60" as="geometry" />
        </mxCell>
        <mxCell id="IKJK6t3MZGkqA9nfA6T0-21" style="edgeStyle=orthogonalEdgeStyle;rounded=0;orthogonalLoop=1;jettySize=auto;html=1;exitX=1;exitY=0.5;exitDx=0;exitDy=0;entryX=0;entryY=0.5;entryDx=0;entryDy=0;" edge="1" parent="1" source="IKJK6t3MZGkqA9nfA6T0-5" target="IKJK6t3MZGkqA9nfA6T0-7">
          <mxGeometry relative="1" as="geometry" />
        </mxCell>
        <mxCell id="IKJK6t3MZGkqA9nfA6T0-5" value="Navaja de Ockam" style="rounded=0;whiteSpace=wrap;html=1;" vertex="1" parent="1">
          <mxGeometry x="414" y="525" width="120" height="60" as="geometry" />
        </mxCell>
        <mxCell id="IKJK6t3MZGkqA9nfA6T0-22" style="edgeStyle=orthogonalEdgeStyle;rounded=0;orthogonalLoop=1;jettySize=auto;html=1;exitX=1;exitY=0.5;exitDx=0;exitDy=0;" edge="1" parent="1" source="IKJK6t3MZGkqA9nfA6T0-6" target="IKJK6t3MZGkqA9nfA6T0-8">
          <mxGeometry relative="1" as="geometry" />
        </mxCell>
        <mxCell id="IKJK6t3MZGkqA9nfA6T0-6" value="Inerpretar parametros (Interpretar los B&lt;sub&gt;i&lt;/sub&gt;)" style="rounded=0;whiteSpace=wrap;html=1;" vertex="1" parent="1">
          <mxGeometry x="606" y="637" width="120" height="60" as="geometry" />
        </mxCell>
        <mxCell id="IKJK6t3MZGkqA9nfA6T0-13" style="edgeStyle=orthogonalEdgeStyle;rounded=0;orthogonalLoop=1;jettySize=auto;html=1;exitX=0.5;exitY=1;exitDx=0;exitDy=0;entryX=0.5;entryY=0;entryDx=0;entryDy=0;" edge="1" parent="1" source="IKJK6t3MZGkqA9nfA6T0-7" target="IKJK6t3MZGkqA9nfA6T0-6">
          <mxGeometry relative="1" as="geometry" />
        </mxCell>
        <mxCell id="IKJK6t3MZGkqA9nfA6T0-7" value="&lt;br&gt;&lt;div&gt;¿B&lt;font size=&quot;1&quot;&gt;&lt;sub&gt;0&lt;/sub&gt;= 0?&lt;/font&gt;&lt;br&gt;&lt;/div&gt;&lt;div&gt;¿B&lt;span style=&quot;font-size: 8.33333px;&quot;&gt;1&lt;/span&gt;&lt;font size=&quot;1&quot;&gt;= 0?&lt;/font&gt;&lt;font size=&quot;1&quot;&gt;&lt;br&gt;&lt;/font&gt;&lt;/div&gt;&lt;div&gt;¿B&lt;span style=&quot;font-size: 8.33333px;&quot;&gt;2&lt;/span&gt;&lt;font size=&quot;1&quot;&gt;= 0?&lt;/font&gt;&lt;font size=&quot;1&quot;&gt;&lt;br&gt;&lt;/font&gt;&lt;/div&gt;&lt;div&gt;¿B&lt;span style=&quot;font-size: 8.33333px;&quot;&gt;3&lt;/span&gt;&lt;font size=&quot;1&quot;&gt;= 0?&lt;/font&gt;&lt;font size=&quot;1&quot;&gt;&lt;br&gt;&lt;/font&gt;&lt;/div&gt;&lt;div&gt;¿B&lt;span style=&quot;font-size: 8.33333px;&quot;&gt;4&lt;/span&gt;&lt;font size=&quot;1&quot;&gt;= 0?&lt;/font&gt;&lt;font size=&quot;1&quot;&gt;&lt;br&gt;&lt;/font&gt;&lt;/div&gt;&lt;div&gt;&lt;br&gt;&lt;/div&gt;" style="ellipse;whiteSpace=wrap;html=1;aspect=fixed;" vertex="1" parent="1">
          <mxGeometry x="602" y="464" width="128" height="128" as="geometry" />
        </mxCell>
        <mxCell id="IKJK6t3MZGkqA9nfA6T0-23" style="edgeStyle=orthogonalEdgeStyle;rounded=0;orthogonalLoop=1;jettySize=auto;html=1;exitX=1;exitY=0.5;exitDx=0;exitDy=0;" edge="1" parent="1" source="IKJK6t3MZGkqA9nfA6T0-8" target="IKJK6t3MZGkqA9nfA6T0-9">
          <mxGeometry relative="1" as="geometry" />
        </mxCell>
        <mxCell id="IKJK6t3MZGkqA9nfA6T0-8" value="" style="rounded=0;whiteSpace=wrap;html=1;" vertex="1" parent="1">
          <mxGeometry x="824" y="637" width="120" height="60" as="geometry" />
        </mxCell>
        <mxCell id="IKJK6t3MZGkqA9nfA6T0-9" value="" style="ellipse;whiteSpace=wrap;html=1;" vertex="1" parent="1">
          <mxGeometry x="1032" y="627" width="120" height="80" as="geometry" />
        </mxCell>
        <mxCell id="IKJK6t3MZGkqA9nfA6T0-10" value="Contraste de hipotesis" style="text;html=1;align=center;verticalAlign=middle;resizable=0;points=[];autosize=1;strokeColor=none;fillColor=none;" vertex="1" parent="1">
          <mxGeometry x="597.5" y="431" width="137" height="26" as="geometry" />
        </mxCell>
        <mxCell id="IKJK6t3MZGkqA9nfA6T0-11" value="Disciminante" style="text;html=1;align=center;verticalAlign=middle;resizable=0;points=[];autosize=1;strokeColor=none;fillColor=none;" vertex="1" parent="1">
          <mxGeometry x="370" y="405" width="87" height="26" as="geometry" />
        </mxCell>
        <mxCell id="IKJK6t3MZGkqA9nfA6T0-12" value="Regresión logistica" style="text;html=1;align=center;verticalAlign=middle;resizable=0;points=[];autosize=1;strokeColor=none;fillColor=none;" vertex="1" parent="1">
          <mxGeometry x="370" y="438" width="119" height="26" as="geometry" />
        </mxCell>
      </root>
    </mxGraphModel>
  </diagram>
</mxfile>
